<svg id="visual" viewBox="0 0 1800 1800" width="1800" height="1800" xmlns="http://www.w3.org/2000/svg" xmlns:xlink="http://www.w3.org/1999/xlink" version="1.1"><rect x="0" y="0" width="1800" height="1800" fill="#001220"></rect><defs><linearGradient id="grad1_0" x1="0%" y1="100%" x2="100%" y2="0%"><stop offset="30%" stop-color="#fbae3c" stop-opacity="1"></stop><stop offset="70%" stop-color="#fbae3c" stop-opacity="1"></stop></linearGradient></defs><defs><linearGradient id="grad1_1" x1="0%" y1="100%" x2="100%" y2="0%"><stop offset="30%" stop-color="#fbae3c" stop-opacity="1"></stop><stop offset="70%" stop-color="#e1685e" stop-opacity="1"></stop></linearGradient></defs><defs><linearGradient id="grad1_2" x1="0%" y1="100%" x2="100%" y2="0%"><stop offset="30%" stop-color="#96446e" stop-opacity="1"></stop><stop offset="70%" stop-color="#e1685e" stop-opacity="1"></stop></linearGradient></defs><defs><linearGradient id="grad1_3" x1="0%" y1="100%" x2="100%" y2="0%"><stop offset="30%" stop-color="#96446e" stop-opacity="1"></stop><stop offset="70%" stop-color="#3d3056" stop-opacity="1"></stop></linearGradient></defs><defs><linearGradient id="grad1_4" x1="0%" y1="100%" x2="100%" y2="0%"><stop offset="30%" stop-color="#001220" stop-opacity="1"></stop><stop offset="70%" stop-color="#3d3056" stop-opacity="1"></stop></linearGradient></defs><defs><linearGradient id="grad2_0" x1="0%" y1="100%" x2="100%" y2="0%"><stop offset="30%" stop-color="#fbae3c" stop-opacity="1"></stop><stop offset="70%" stop-color="#fbae3c" stop-opacity="1"></stop></linearGradient></defs><defs><linearGradient id="grad2_1" x1="0%" y1="100%" x2="100%" y2="0%"><stop offset="30%" stop-color="#e1685e" stop-opacity="1"></stop><stop offset="70%" stop-color="#fbae3c" stop-opacity="1"></stop></linearGradient></defs><defs><linearGradient id="grad2_2" x1="0%" y1="100%" x2="100%" y2="0%"><stop offset="30%" stop-color="#e1685e" stop-opacity="1"></stop><stop offset="70%" stop-color="#96446e" stop-opacity="1"></stop></linearGradient></defs><defs><linearGradient id="grad2_3" x1="0%" y1="100%" x2="100%" y2="0%"><stop offset="30%" stop-color="#3d3056" stop-opacity="1"></stop><stop offset="70%" stop-color="#96446e" stop-opacity="1"></stop></linearGradient></defs><defs><linearGradient id="grad2_4" x1="0%" y1="100%" x2="100%" y2="0%"><stop offset="30%" stop-color="#3d3056" stop-opacity="1"></stop><stop offset="70%" stop-color="#001220" stop-opacity="1"></stop></linearGradient></defs><g transform="translate(1800, 1800)"><path d="M-1145.5 0C-1044.3 -114.2 -943.2 -228.4 -902.6 -373.9C-862.1 -519.3 -882.2 -696 -810 -810C-737.8 -924 -573.3 -975.4 -422.9 -1020.9C-272.5 -1066.4 -136.2 -1105.9 0 -1145.5L0 0Z" fill="#18223c"></path><path d="M-916.4 0C-835.5 -91.4 -754.5 -182.8 -722.1 -299.1C-689.7 -415.5 -705.8 -556.8 -648 -648C-590.2 -739.2 -458.6 -780.3 -338.3 -816.7C-218 -853.1 -109 -884.8 0 -916.4L0 0Z" fill="#683a67"></path><path d="M-687.3 0C-626.6 -68.5 -565.9 -137.1 -541.6 -224.3C-517.3 -311.6 -529.3 -417.6 -486 -486C-442.7 -554.4 -344 -585.2 -253.7 -612.5C-163.5 -639.8 -81.7 -663.6 0 -687.3L0 0Z" fill="#c0526a"></path><path d="M-458.2 0C-417.7 -45.7 -377.3 -91.4 -361.1 -149.6C-344.8 -207.7 -352.9 -278.4 -324 -324C-295.1 -369.6 -229.3 -390.2 -169.1 -408.4C-109 -426.5 -54.5 -442.4 0 -458.2L0 0Z" fill="#f6884d"></path><path d="M-229.1 0C-208.9 -22.8 -188.6 -45.7 -180.5 -74.8C-172.4 -103.9 -176.4 -139.2 -162 -162C-147.6 -184.8 -114.7 -195.1 -84.6 -204.2C-54.5 -213.3 -27.2 -221.2 0 -229.1L0 0Z" fill="#fbae3c"></path></g><g transform="translate(0, 0)"><path d="M1145.5 0C1142.6 163.9 1139.7 327.7 1058.3 438.4C976.9 549 817.1 606.4 707.1 707.1C597.1 807.8 537 951.7 427.5 1032C317.9 1112.2 159 1128.9 0 1145.5L0 0Z" fill="#18223c"></path><path d="M916.4 0C914.1 131.1 911.8 262.2 846.7 350.7C781.6 439.2 653.7 485.1 565.7 565.7C477.7 646.2 429.6 761.4 342 825.6C254.3 889.8 127.2 903.1 0 916.4L0 0Z" fill="#683a67"></path><path d="M687.3 0C685.6 98.3 683.8 196.6 635 263C586.2 329.4 490.3 363.9 424.3 424.3C358.3 484.7 322.2 571 256.5 619.2C190.7 667.3 95.4 677.3 0 687.3L0 0Z" fill="#c0526a"></path><path d="M458.2 0C457 65.5 455.9 131.1 423.3 175.3C390.8 219.6 326.8 242.6 282.8 282.8C238.8 323.1 214.8 380.7 171 412.8C127.2 444.9 63.6 451.6 0 458.2L0 0Z" fill="#f6884d"></path><path d="M229.1 0C228.5 32.8 227.9 65.5 211.7 87.7C195.4 109.8 163.4 121.3 141.4 141.4C119.4 161.6 107.4 190.3 85.5 206.4C63.6 222.4 31.8 225.8 0 229.1L0 0Z" fill="#fbae3c"></path></g></svg>