<svg id="visual" viewBox="0 0 1300 1800" width="1300" height="1800" xmlns="http://www.w3.org/2000/svg" xmlns:xlink="http://www.w3.org/1999/xlink" version="1.1"><path d="M1143 1800L1127.8 1772.7C1112.7 1745.3 1082.3 1690.7 1058.5 1636.2C1034.7 1581.7 1017.3 1527.3 1021.7 1472.8C1026 1418.3 1052 1363.7 1073.7 1309C1095.3 1254.3 1112.7 1199.7 1104 1145.2C1095.3 1090.7 1060.7 1036.3 1034.7 981.8C1008.7 927.3 991.3 872.7 980.5 818.2C969.7 763.7 965.3 709.3 969.7 654.8C974 600.3 987 545.7 1021.7 491C1056.3 436.3 1112.7 381.7 1138.7 327.2C1164.7 272.7 1160.3 218.3 1149.5 163.8C1138.7 109.3 1121.3 54.7 1112.7 27.3L1104 0L1300 0L1300 27.3C1300 54.7 1300 109.3 1300 163.8C1300 218.3 1300 272.7 1300 327.2C1300 381.7 1300 436.3 1300 491C1300 545.7 1300 600.3 1300 654.8C1300 709.3 1300 763.7 1300 818.2C1300 872.7 1300 927.3 1300 981.8C1300 1036.3 1300 1090.7 1300 1145.2C1300 1199.7 1300 1254.3 1300 1309C1300 1363.7 1300 1418.3 1300 1472.8C1300 1527.3 1300 1581.7 1300 1636.2C1300 1690.7 1300 1745.3 1300 1772.7L1300 1800Z" fill="#dada38"></path><path d="M974 1800L965.3 1772.7C956.7 1745.3 939.3 1690.7 926.3 1636.2C913.3 1581.7 904.7 1527.3 900.3 1472.8C896 1418.3 896 1363.7 911.2 1309C926.3 1254.3 956.7 1199.7 961 1145.2C965.3 1090.7 943.7 1036.3 924.2 981.8C904.7 927.3 887.3 872.7 872.2 818.2C857 763.7 844 709.3 848.3 654.8C852.7 600.3 874.3 545.7 902.5 491C930.7 436.3 965.3 381.7 987 327.2C1008.7 272.7 1017.3 218.3 1004.3 163.8C991.3 109.3 956.7 54.7 939.3 27.3L922 0L1105 0L1113.7 27.3C1122.3 54.7 1139.7 109.3 1150.5 163.8C1161.3 218.3 1165.7 272.7 1139.7 327.2C1113.7 381.7 1057.3 436.3 1022.7 491C988 545.7 975 600.3 970.7 654.8C966.3 709.3 970.7 763.7 981.5 818.2C992.3 872.7 1009.7 927.3 1035.7 981.8C1061.7 1036.3 1096.3 1090.7 1105 1145.2C1113.7 1199.7 1096.3 1254.3 1074.7 1309C1053 1363.7 1027 1418.3 1022.7 1472.8C1018.3 1527.3 1035.7 1581.7 1059.5 1636.2C1083.3 1690.7 1113.7 1745.3 1128.8 1772.7L1144 1800Z" fill="#e4a32c"></path><path d="M584 1800L571 1772.7C558 1745.3 532 1690.7 506 1636.2C480 1581.7 454 1527.3 475.7 1472.8C497.3 1418.3 566.7 1363.7 597 1309C627.3 1254.3 618.7 1199.7 581.8 1145.2C545 1090.7 480 1036.3 464.8 981.8C449.7 927.3 484.3 872.7 503.8 818.2C523.3 763.7 527.7 709.3 523.3 654.8C519 600.3 506 545.7 534.2 491C562.3 436.3 631.7 381.7 640.3 327.2C649 272.7 597 218.3 594.8 163.8C592.7 109.3 640.3 54.7 664.2 27.3L688 0L923 0L940.3 27.3C957.7 54.7 992.3 109.3 1005.3 163.8C1018.3 218.3 1009.7 272.7 988 327.2C966.3 381.7 931.7 436.3 903.5 491C875.3 545.7 853.7 600.3 849.3 654.8C845 709.3 858 763.7 873.2 818.2C888.3 872.7 905.7 927.3 925.2 981.8C944.7 1036.3 966.3 1090.7 962 1145.2C957.7 1199.7 927.3 1254.3 912.2 1309C897 1363.7 897 1418.3 901.3 1472.8C905.7 1527.3 914.3 1581.7 927.3 1636.2C940.3 1690.7 957.7 1745.3 966.3 1772.7L975 1800Z" fill="#d66f3a"></path><path d="M194 1800L198.3 1772.7C202.7 1745.3 211.3 1690.7 211.3 1636.2C211.3 1581.7 202.7 1527.3 207 1472.8C211.3 1418.3 228.7 1363.7 217.8 1309C207 1254.3 168 1199.7 157.2 1145.2C146.3 1090.7 163.7 1036.3 174.5 981.8C185.3 927.3 189.7 872.7 181 818.2C172.3 763.7 150.7 709.3 157.2 654.8C163.7 600.3 198.3 545.7 209.2 491C220 436.3 207 381.7 200.5 327.2C194 272.7 194 218.3 200.5 163.8C207 109.3 220 54.7 226.5 27.3L233 0L689 0L665.2 27.3C641.3 54.7 593.7 109.3 595.8 163.8C598 218.3 650 272.7 641.3 327.2C632.7 381.7 563.3 436.3 535.2 491C507 545.7 520 600.3 524.3 654.8C528.7 709.3 524.3 763.7 504.8 818.2C485.3 872.7 450.7 927.3 465.8 981.8C481 1036.3 546 1090.7 582.8 1145.2C619.7 1199.7 628.3 1254.3 598 1309C567.7 1363.7 498.3 1418.3 476.7 1472.8C455 1527.3 481 1581.7 507 1636.2C533 1690.7 559 1745.3 572 1772.7L585 1800Z" fill="#b44447"></path><path d="M0 1800L0 1772.7C0 1745.3 0 1690.7 0 1636.2C0 1581.7 0 1527.3 0 1472.8C0 1418.3 0 1363.7 0 1309C0 1254.3 0 1199.7 0 1145.2C0 1090.7 0 1036.3 0 981.8C0 927.3 0 872.7 0 818.2C0 763.7 0 709.3 0 654.8C0 600.3 0 545.7 0 491C0 436.3 0 381.7 0 327.2C0 272.7 0 218.3 0 163.8C0 109.3 0 54.7 0 27.3L0 0L234 0L227.5 27.3C221 54.7 208 109.3 201.5 163.8C195 218.3 195 272.7 201.5 327.2C208 381.7 221 436.3 210.2 491C199.3 545.7 164.7 600.3 158.2 654.8C151.7 709.3 173.3 763.7 182 818.2C190.7 872.7 186.3 927.3 175.5 981.8C164.7 1036.3 147.3 1090.7 158.2 1145.2C169 1199.7 208 1254.3 218.8 1309C229.7 1363.7 212.3 1418.3 208 1472.8C203.7 1527.3 212.3 1581.7 212.3 1636.2C212.3 1690.7 203.7 1745.3 199.3 1772.7L195 1800Z" fill="#83264b"></path></svg>