<svg id="visual" viewBox="0 0 900 1280" width="900" height="1280" xmlns="http://www.w3.org/2000/svg" xmlns:xlink="http://www.w3.org/1999/xlink" version="1.1"><g stroke-width="1" stroke-linejoin="bevel"><path d="M475 670.2L415 613.8L404 699.2Z" fill="#00101c" stroke="#00101c"></path><path d="M475 670.2L498 555.8L415 613.8Z" fill="#19435d" stroke="#19435d"></path><path d="M297 713.2L379 773.7L404 699.2Z" fill="#112e42" stroke="#112e42"></path><path d="M404 699.2L532 754.7L475 670.2Z" fill="#277297" stroke="#277297"></path><path d="M379 773.7L532 754.7L404 699.2Z" fill="#246688" stroke="#246688"></path><path d="M475 670.2L575 650.2L498 555.8Z" fill="#00101c" stroke="#00101c"></path><path d="M415 613.8L297 713.2L404 699.2Z" fill="#081a28" stroke="#081a28"></path><path d="M434 511.3L323 560.8L415 613.8Z" fill="#15384f" stroke="#15384f"></path><path d="M415 613.8L323 560.8L297 713.2Z" fill="#0c2435" stroke="#0c2435"></path><path d="M532 754.7L575 650.2L475 670.2Z" fill="#19435d" stroke="#19435d"></path><path d="M498 555.8L434 511.3L415 613.8Z" fill="#081a28" stroke="#081a28"></path><path d="M575 650.2L570 577.8L498 555.8Z" fill="#205a7a" stroke="#205a7a"></path><path d="M498 555.8L518 456.3L434 511.3Z" fill="#19435d" stroke="#19435d"></path><path d="M507 894.2L588 776.7L532 754.7Z" fill="#1d4e6b" stroke="#1d4e6b"></path><path d="M532 754.7L588 776.7L575 650.2Z" fill="#277297" stroke="#277297"></path><path d="M575 650.2L739 562.8L570 577.8Z" fill="#112e42" stroke="#112e42"></path><path d="M297 713.2L312 825.7L379 773.7Z" fill="#0c2435" stroke="#0c2435"></path><path d="M379 773.7L507 894.2L532 754.7Z" fill="#277297" stroke="#277297"></path><path d="M323 560.8L213 652.2L297 713.2Z" fill="#0c2435" stroke="#0c2435"></path><path d="M297 713.2L213 815.7L312 825.7Z" fill="#0c2435" stroke="#0c2435"></path><path d="M570 577.8L518 456.3L498 555.8Z" fill="#205a7a" stroke="#205a7a"></path><path d="M434 511.3L291 469.3L323 560.8Z" fill="#081a28" stroke="#081a28"></path><path d="M396 391.8L291 469.3L434 511.3Z" fill="#19435d" stroke="#19435d"></path><path d="M323 560.8L214 553.8L213 652.2Z" fill="#0c2435" stroke="#0c2435"></path><path d="M518 456.3L490 427.8L434 511.3Z" fill="#0c2435" stroke="#0c2435"></path><path d="M291 469.3L214 553.8L323 560.8Z" fill="#19435d" stroke="#19435d"></path><path d="M213 815.7L304 870.2L312 825.7Z" fill="#1d4e6b" stroke="#1d4e6b"></path><path d="M312 825.7L389 903.2L379 773.7Z" fill="#15384f" stroke="#15384f"></path><path d="M304 870.2L389 903.2L312 825.7Z" fill="#0c2435" stroke="#0c2435"></path><path d="M389 903.2L507 894.2L379 773.7Z" fill="#246688" stroke="#246688"></path><path d="M213 652.2L213 815.7L297 713.2Z" fill="#246688" stroke="#246688"></path><path d="M490 427.8L396 391.8L434 511.3Z" fill="#081a28" stroke="#081a28"></path><path d="M507 894.2L602 876.2L588 776.7Z" fill="#081a28" stroke="#081a28"></path><path d="M588 776.7L708 687.2L575 650.2Z" fill="#297ea6" stroke="#297ea6"></path><path d="M396 391.8L281 422.8L291 469.3Z" fill="#19435d" stroke="#19435d"></path><path d="M291 469.3L218 469.3L214 553.8Z" fill="#205a7a" stroke="#205a7a"></path><path d="M725 802.7L708 687.2L588 776.7Z" fill="#297ea6" stroke="#297ea6"></path><path d="M570 577.8L638 465.3L518 456.3Z" fill="#277297" stroke="#277297"></path><path d="M281 422.8L218 469.3L291 469.3Z" fill="#081a28" stroke="#081a28"></path><path d="M739 562.8L638 465.3L570 577.8Z" fill="#205a7a" stroke="#205a7a"></path><path d="M518 456.3L599 365.8L490 427.8Z" fill="#00101c" stroke="#00101c"></path><path d="M490 427.8L418 313.4L396 391.8Z" fill="#081a28" stroke="#081a28"></path><path d="M214 553.8L133 574.8L213 652.2Z" fill="#205a7a" stroke="#205a7a"></path><path d="M213 652.2L110 659.2L213 815.7Z" fill="#112e42" stroke="#112e42"></path><path d="M218 469.3L133 574.8L214 553.8Z" fill="#246688" stroke="#246688"></path><path d="M133 574.8L110 659.2L213 652.2Z" fill="#297ea6" stroke="#297ea6"></path><path d="M389 903.2L484 975.6L507 894.2Z" fill="#00101c" stroke="#00101c"></path><path d="M507 894.2L565 996.6L602 876.2Z" fill="#00101c" stroke="#00101c"></path><path d="M408 982.6L484 975.6L389 903.2Z" fill="#205a7a" stroke="#205a7a"></path><path d="M303 1014.6L389 903.2L304 870.2Z" fill="#081a28" stroke="#081a28"></path><path d="M303 1014.6L408 982.6L389 903.2Z" fill="#00101c" stroke="#00101c"></path><path d="M708 687.2L739 562.8L575 650.2Z" fill="#1d4e6b" stroke="#1d4e6b"></path><path d="M101 870.2L198 887.2L213 815.7Z" fill="#081a28" stroke="#081a28"></path><path d="M213 815.7L198 887.2L304 870.2Z" fill="#246688" stroke="#246688"></path><path d="M602 876.2L725 802.7L588 776.7Z" fill="#1d4e6b" stroke="#1d4e6b"></path><path d="M708 687.2L763 654.2L739 562.8Z" fill="#081a28" stroke="#081a28"></path><path d="M731 863.2L725 802.7L602 876.2Z" fill="#00101c" stroke="#00101c"></path><path d="M770 754.7L763 654.2L708 687.2Z" fill="#205a7a" stroke="#205a7a"></path><path d="M703 430.8L599 365.8L638 465.3Z" fill="#112e42" stroke="#112e42"></path><path d="M638 465.3L599 365.8L518 456.3Z" fill="#205a7a" stroke="#205a7a"></path><path d="M480 299.4L418 313.4L490 427.8Z" fill="#081a28" stroke="#081a28"></path><path d="M396 391.8L272 258.4L281 422.8Z" fill="#15384f" stroke="#15384f"></path><path d="M281 422.8L164 375.8L218 469.3Z" fill="#0c2435" stroke="#0c2435"></path><path d="M739 562.8L723 463.3L638 465.3Z" fill="#277297" stroke="#277297"></path><path d="M825 453.3L723 463.3L739 562.8Z" fill="#1d4e6b" stroke="#1d4e6b"></path><path d="M725 802.7L770 754.7L708 687.2Z" fill="#205a7a" stroke="#205a7a"></path><path d="M723 463.3L703 430.8L638 465.3Z" fill="#277297" stroke="#277297"></path><path d="M565 303.4L480 299.4L490 427.8Z" fill="#246688" stroke="#246688"></path><path d="M491 1118.1L565 996.6L484 975.6Z" fill="#00101c" stroke="#00101c"></path><path d="M484 975.6L565 996.6L507 894.2Z" fill="#00101c" stroke="#00101c"></path><path d="M725 802.7L797 881.2L770 754.7Z" fill="#081a28" stroke="#081a28"></path><path d="M662 1011.6L731 863.2L602 876.2Z" fill="#081a28" stroke="#081a28"></path><path d="M900 658.2L795 622.8L763 654.2Z" fill="#15384f" stroke="#15384f"></path><path d="M763 654.2L795 622.8L739 562.8Z" fill="#277297" stroke="#277297"></path><path d="M110 659.2L85 797.7L213 815.7Z" fill="#297ea6" stroke="#297ea6"></path><path d="M204 974.6L303 1014.6L304 870.2Z" fill="#081a28" stroke="#081a28"></path><path d="M408 982.6L491 1118.1L484 975.6Z" fill="#205a7a" stroke="#205a7a"></path><path d="M204 974.6L304 870.2L198 887.2Z" fill="#19435d" stroke="#19435d"></path><path d="M599 365.8L565 303.4L490 427.8Z" fill="#246688" stroke="#246688"></path><path d="M707 276.4L565 303.4L599 365.8Z" fill="#00101c" stroke="#00101c"></path><path d="M117 983.6L204 974.6L198 887.2Z" fill="#277297" stroke="#277297"></path><path d="M194 332.4L164 375.8L281 422.8Z" fill="#1d4e6b" stroke="#1d4e6b"></path><path d="M218 469.3L67 473.3L133 574.8Z" fill="#19435d" stroke="#19435d"></path><path d="M0 619.8L0 688.2L110 659.2Z" fill="#0c2435" stroke="#0c2435"></path><path d="M85 797.7L101 870.2L213 815.7Z" fill="#277297" stroke="#277297"></path><path d="M164 375.8L117 413.8L218 469.3Z" fill="#19435d" stroke="#19435d"></path><path d="M110 659.2L0 688.2L85 797.7Z" fill="#00101c" stroke="#00101c"></path><path d="M272 258.4L194 332.4L281 422.8Z" fill="#1d4e6b" stroke="#1d4e6b"></path><path d="M164 375.8L105 294.4L117 413.8Z" fill="#00101c" stroke="#00101c"></path><path d="M272 258.4L396 391.8L418 313.4Z" fill="#246688" stroke="#246688"></path><path d="M117 413.8L67 473.3L218 469.3Z" fill="#246688" stroke="#246688"></path><path d="M565 996.6L662 1011.6L602 876.2Z" fill="#0c2435" stroke="#0c2435"></path><path d="M605 1121.1L662 1011.6L565 996.6Z" fill="#112e42" stroke="#112e42"></path><path d="M780 1015.6L797 881.2L731 863.2Z" fill="#246688" stroke="#246688"></path><path d="M731 863.2L797 881.2L725 802.7Z" fill="#15384f" stroke="#15384f"></path><path d="M770 754.7L900 658.2L763 654.2Z" fill="#19435d" stroke="#19435d"></path><path d="M0 619.8L110 659.2L133 574.8Z" fill="#112e42" stroke="#112e42"></path><path d="M85 797.7L0 874.2L101 870.2Z" fill="#112e42" stroke="#112e42"></path><path d="M289 232.9L418 313.4L389 165.9Z" fill="#277297" stroke="#277297"></path><path d="M289 232.9L272 258.4L418 313.4Z" fill="#081a28" stroke="#081a28"></path><path d="M0 499.3L0 619.8L133 574.8Z" fill="#15384f" stroke="#15384f"></path><path d="M282 1121.1L365 1093.1L303 1014.6Z" fill="#0c2435" stroke="#0c2435"></path><path d="M303 1014.6L365 1093.1L408 982.6Z" fill="#0c2435" stroke="#0c2435"></path><path d="M723 463.3L762 359.8L703 430.8Z" fill="#0c2435" stroke="#0c2435"></path><path d="M703 430.8L707 276.4L599 365.8Z" fill="#112e42" stroke="#112e42"></path><path d="M900 511.3L825 453.3L739 562.8Z" fill="#297ea6" stroke="#297ea6"></path><path d="M900 511.3L739 562.8L795 622.8Z" fill="#297ea6" stroke="#297ea6"></path><path d="M825 453.3L762 359.8L723 463.3Z" fill="#297ea6" stroke="#297ea6"></path><path d="M389 165.9L418 313.4L480 299.4Z" fill="#081a28" stroke="#081a28"></path><path d="M272 258.4L105 294.4L194 332.4Z" fill="#246688" stroke="#246688"></path><path d="M0 688.2L0 792.7L85 797.7Z" fill="#00101c" stroke="#00101c"></path><path d="M101 870.2L117 983.6L198 887.2Z" fill="#00101c" stroke="#00101c"></path><path d="M0 989.6L117 983.6L101 870.2Z" fill="#277297" stroke="#277297"></path><path d="M204 974.6L282 1121.1L303 1014.6Z" fill="#297ea6" stroke="#297ea6"></path><path d="M617 167.9L526 214.9L565 303.4Z" fill="#205a7a" stroke="#205a7a"></path><path d="M565 303.4L526 214.9L480 299.4Z" fill="#297ea6" stroke="#297ea6"></path><path d="M67 473.3L0 499.3L133 574.8Z" fill="#277297" stroke="#277297"></path><path d="M0 397.8L0 499.3L67 473.3Z" fill="#246688" stroke="#246688"></path><path d="M0 397.8L67 473.3L117 413.8Z" fill="#205a7a" stroke="#205a7a"></path><path d="M105 294.4L164 375.8L194 332.4Z" fill="#15384f" stroke="#15384f"></path><path d="M365 1093.1L491 1118.1L408 982.6Z" fill="#1d4e6b" stroke="#1d4e6b"></path><path d="M900 803.7L900 658.2L770 754.7Z" fill="#081a28" stroke="#081a28"></path><path d="M793 260.4L707 276.4L762 359.8Z" fill="#277297" stroke="#277297"></path><path d="M762 359.8L707 276.4L703 430.8Z" fill="#246688" stroke="#246688"></path><path d="M900 658.2L900 574.8L795 622.8Z" fill="#15384f" stroke="#15384f"></path><path d="M0 792.7L0 874.2L85 797.7Z" fill="#19435d" stroke="#19435d"></path><path d="M167 1121.1L282 1121.1L204 974.6Z" fill="#277297" stroke="#277297"></path><path d="M424 1195.5L492 1150.5L491 1118.1Z" fill="#15384f" stroke="#15384f"></path><path d="M236 157.9L105 294.4L272 258.4Z" fill="#205a7a" stroke="#205a7a"></path><path d="M900 848.2L900 803.7L797 881.2Z" fill="#1d4e6b" stroke="#1d4e6b"></path><path d="M797 881.2L900 803.7L770 754.7Z" fill="#297ea6" stroke="#297ea6"></path><path d="M900 574.8L900 511.3L795 622.8Z" fill="#081a28" stroke="#081a28"></path><path d="M900 333.4L793 260.4L762 359.8Z" fill="#277297" stroke="#277297"></path><path d="M565 1158.5L605 1121.1L491 1118.1Z" fill="#246688" stroke="#246688"></path><path d="M491 1118.1L605 1121.1L565 996.6Z" fill="#15384f" stroke="#15384f"></path><path d="M662 1011.6L780 1015.6L731 863.2Z" fill="#297ea6" stroke="#297ea6"></path><path d="M526 214.9L389 165.9L480 299.4Z" fill="#15384f" stroke="#15384f"></path><path d="M289 232.9L236 157.9L272 258.4Z" fill="#277297" stroke="#277297"></path><path d="M366 129.5L389 165.9L514 101.5Z" fill="#246688" stroke="#246688"></path><path d="M424 1195.5L491 1118.1L365 1093.1Z" fill="#277297" stroke="#277297"></path><path d="M725 1092.1L780 1015.6L662 1011.6Z" fill="#246688" stroke="#246688"></path><path d="M105 294.4L0 397.8L117 413.8Z" fill="#1d4e6b" stroke="#1d4e6b"></path><path d="M900 972.6L900 848.2L797 881.2Z" fill="#00101c" stroke="#00101c"></path><path d="M492 1150.5L565 1158.5L491 1118.1Z" fill="#205a7a" stroke="#205a7a"></path><path d="M605 1121.1L725 1092.1L662 1011.6Z" fill="#205a7a" stroke="#205a7a"></path><path d="M705 1176.5L725 1092.1L605 1121.1Z" fill="#205a7a" stroke="#205a7a"></path><path d="M707 276.4L617 167.9L565 303.4Z" fill="#19435d" stroke="#19435d"></path><path d="M82 1101.1L167 1121.1L117 983.6Z" fill="#246688" stroke="#246688"></path><path d="M117 983.6L167 1121.1L204 974.6Z" fill="#081a28" stroke="#081a28"></path><path d="M329 1194.5L424 1195.5L365 1093.1Z" fill="#277297" stroke="#277297"></path><path d="M492 1150.5L503 1280L565 1158.5Z" fill="#112e42" stroke="#112e42"></path><path d="M514 101.5L389 165.9L526 214.9Z" fill="#19435d" stroke="#19435d"></path><path d="M389 165.9L326 132.5L289 232.9Z" fill="#246688" stroke="#246688"></path><path d="M366 129.5L326 132.5L389 165.9Z" fill="#00101c" stroke="#00101c"></path><path d="M329 1194.5L365 1093.1L282 1121.1Z" fill="#277297" stroke="#277297"></path><path d="M326 132.5L236 157.9L289 232.9Z" fill="#15384f" stroke="#15384f"></path><path d="M105 294.4L0 274.4L0 397.8Z" fill="#297ea6" stroke="#297ea6"></path><path d="M900 387.8L762 359.8L825 453.3Z" fill="#19435d" stroke="#19435d"></path><path d="M707 276.4L694 172.9L617 167.9Z" fill="#1d4e6b" stroke="#1d4e6b"></path><path d="M0 874.2L0 989.6L101 870.2Z" fill="#0c2435" stroke="#0c2435"></path><path d="M900 511.3L900 387.8L825 453.3Z" fill="#112e42" stroke="#112e42"></path><path d="M219 1219.5L329 1194.5L282 1121.1Z" fill="#1d4e6b" stroke="#1d4e6b"></path><path d="M793 260.4L694 172.9L707 276.4Z" fill="#1d4e6b" stroke="#1d4e6b"></path><path d="M563 107.5L514 101.5L526 214.9Z" fill="#246688" stroke="#246688"></path><path d="M828 1202.5L820 1058.1L725 1092.1Z" fill="#0c2435" stroke="#0c2435"></path><path d="M725 1092.1L820 1058.1L780 1015.6Z" fill="#205a7a" stroke="#205a7a"></path><path d="M780 1015.6L900 972.6L797 881.2Z" fill="#1d4e6b" stroke="#1d4e6b"></path><path d="M0 989.6L82 1101.1L117 983.6Z" fill="#277297" stroke="#277297"></path><path d="M167 1121.1L219 1219.5L282 1121.1Z" fill="#1d4e6b" stroke="#1d4e6b"></path><path d="M563 107.5L526 214.9L617 167.9Z" fill="#112e42" stroke="#112e42"></path><path d="M283 0L220 108.5L326 132.5Z" fill="#1d4e6b" stroke="#1d4e6b"></path><path d="M820 1058.1L900 972.6L780 1015.6Z" fill="#1d4e6b" stroke="#1d4e6b"></path><path d="M690 134.5L563 107.5L617 167.9Z" fill="#081a28" stroke="#081a28"></path><path d="M800 121.5L690 134.5L694 172.9Z" fill="#1d4e6b" stroke="#1d4e6b"></path><path d="M900 387.8L900 333.4L762 359.8Z" fill="#297ea6" stroke="#297ea6"></path><path d="M0 231.9L0 274.4L105 294.4Z" fill="#00101c" stroke="#00101c"></path><path d="M694 172.9L690 134.5L617 167.9Z" fill="#0c2435" stroke="#0c2435"></path><path d="M832 222.9L694 172.9L793 260.4Z" fill="#15384f" stroke="#15384f"></path><path d="M565 1158.5L705 1176.5L605 1121.1Z" fill="#00101c" stroke="#00101c"></path><path d="M596 1280L705 1176.5L565 1158.5Z" fill="#297ea6" stroke="#297ea6"></path><path d="M326 132.5L220 108.5L236 157.9Z" fill="#297ea6" stroke="#297ea6"></path><path d="M236 157.9L67 160.9L105 294.4Z" fill="#15384f" stroke="#15384f"></path><path d="M283 0L326 132.5L366 129.5Z" fill="#277297" stroke="#277297"></path><path d="M900 333.4L832 222.9L793 260.4Z" fill="#246688" stroke="#246688"></path><path d="M329 1194.5L435 1280L424 1195.5Z" fill="#246688" stroke="#246688"></path><path d="M424 1195.5L503 1280L492 1150.5Z" fill="#0c2435" stroke="#0c2435"></path><path d="M70 1156.5L219 1219.5L167 1121.1Z" fill="#112e42" stroke="#112e42"></path><path d="M67 160.9L0 231.9L105 294.4Z" fill="#277297" stroke="#277297"></path><path d="M900 1170.5L900 1048.1L820 1058.1Z" fill="#297ea6" stroke="#297ea6"></path><path d="M820 1058.1L900 1048.1L900 972.6Z" fill="#246688" stroke="#246688"></path><path d="M0 1101.1L70 1156.5L82 1101.1Z" fill="#081a28" stroke="#081a28"></path><path d="M82 1101.1L70 1156.5L167 1121.1Z" fill="#246688" stroke="#246688"></path><path d="M131 90.5L67 160.9L236 157.9Z" fill="#1d4e6b" stroke="#1d4e6b"></path><path d="M0 989.6L0 1101.1L82 1101.1Z" fill="#277297" stroke="#277297"></path><path d="M302 1280L435 1280L329 1194.5Z" fill="#0c2435" stroke="#0c2435"></path><path d="M435 1280L503 1280L424 1195.5Z" fill="#246688" stroke="#246688"></path><path d="M201 1280L302 1280L219 1219.5Z" fill="#277297" stroke="#277297"></path><path d="M219 1219.5L302 1280L329 1194.5Z" fill="#297ea6" stroke="#297ea6"></path><path d="M220 108.5L131 90.5L236 157.9Z" fill="#112e42" stroke="#112e42"></path><path d="M67 160.9L0 129.5L0 231.9Z" fill="#205a7a" stroke="#205a7a"></path><path d="M227 0L131 90.5L220 108.5Z" fill="#277297" stroke="#277297"></path><path d="M503 1280L596 1280L565 1158.5Z" fill="#277297" stroke="#277297"></path><path d="M705 1176.5L828 1202.5L725 1092.1Z" fill="#112e42" stroke="#112e42"></path><path d="M0 1101.1L0 1148.5L70 1156.5Z" fill="#1d4e6b" stroke="#1d4e6b"></path><path d="M104 1280L201 1280L219 1219.5Z" fill="#246688" stroke="#246688"></path><path d="M900 172.9L800 121.5L832 222.9Z" fill="#205a7a" stroke="#205a7a"></path><path d="M832 222.9L800 121.5L694 172.9Z" fill="#15384f" stroke="#15384f"></path><path d="M633 0L503 0L563 107.5Z" fill="#1d4e6b" stroke="#1d4e6b"></path><path d="M503 0L412 0L514 101.5Z" fill="#15384f" stroke="#15384f"></path><path d="M503 0L514 101.5L563 107.5Z" fill="#297ea6" stroke="#297ea6"></path><path d="M514 101.5L412 0L366 129.5Z" fill="#205a7a" stroke="#205a7a"></path><path d="M104 1280L219 1219.5L70 1156.5Z" fill="#297ea6" stroke="#297ea6"></path><path d="M633 0L563 107.5L690 134.5Z" fill="#0c2435" stroke="#0c2435"></path><path d="M596 1280L680 1280L705 1176.5Z" fill="#19435d" stroke="#19435d"></path><path d="M780 1280L828 1202.5L705 1176.5Z" fill="#1d4e6b" stroke="#1d4e6b"></path><path d="M412 0L283 0L366 129.5Z" fill="#0c2435" stroke="#0c2435"></path><path d="M900 333.4L900 172.9L832 222.9Z" fill="#297ea6" stroke="#297ea6"></path><path d="M0 0L0 129.5L131 90.5Z" fill="#246688" stroke="#246688"></path><path d="M131 90.5L0 129.5L67 160.9Z" fill="#297ea6" stroke="#297ea6"></path><path d="M283 0L227 0L220 108.5Z" fill="#081a28" stroke="#081a28"></path><path d="M663 0L633 0L690 134.5Z" fill="#00101c" stroke="#00101c"></path><path d="M663 0L690 134.5L765 0Z" fill="#19435d" stroke="#19435d"></path><path d="M900 1280L900 1170.5L828 1202.5Z" fill="#277297" stroke="#277297"></path><path d="M828 1202.5L900 1170.5L820 1058.1Z" fill="#246688" stroke="#246688"></path><path d="M765 0L690 134.5L800 121.5Z" fill="#297ea6" stroke="#297ea6"></path><path d="M0 1280L104 1280L70 1156.5Z" fill="#112e42" stroke="#112e42"></path><path d="M680 1280L780 1280L705 1176.5Z" fill="#277297" stroke="#277297"></path><path d="M900 172.9L900 119.5L800 121.5Z" fill="#1d4e6b" stroke="#1d4e6b"></path><path d="M227 0L139 0L131 90.5Z" fill="#081a28" stroke="#081a28"></path><path d="M900 0L765 0L800 121.5Z" fill="#246688" stroke="#246688"></path><path d="M0 1148.5L0 1280L70 1156.5Z" fill="#0c2435" stroke="#0c2435"></path><path d="M780 1280L900 1280L828 1202.5Z" fill="#277297" stroke="#277297"></path><path d="M139 0L0 0L131 90.5Z" fill="#205a7a" stroke="#205a7a"></path><path d="M900 119.5L900 0L800 121.5Z" fill="#1d4e6b" stroke="#1d4e6b"></path></g></svg>