<svg id="visual" viewBox="0 0 1300 1800" width="1300" height="1800" xmlns="http://www.w3.org/2000/svg" xmlns:xlink="http://www.w3.org/1999/xlink" version="1.1"><path d="M1000 1800L995.7 1772.7C991.3 1745.3 982.7 1690.7 971.8 1636.2C961 1581.7 948 1527.3 958.8 1472.8C969.7 1418.3 1004.3 1363.7 980.5 1309C956.7 1254.3 874.3 1199.7 839.7 1145.2C805 1090.7 818 1036.3 820.2 981.8C822.3 927.3 813.7 872.7 805 818.2C796.3 763.7 787.7 709.3 783.3 654.8C779 600.3 779 545.7 815.8 491C852.7 436.3 926.3 381.7 943.7 327.2C961 272.7 922 218.3 900.3 163.8C878.7 109.3 874.3 54.7 872.2 27.3L870 0L1300 0L1300 27.3C1300 54.7 1300 109.3 1300 163.8C1300 218.3 1300 272.7 1300 327.2C1300 381.7 1300 436.3 1300 491C1300 545.7 1300 600.3 1300 654.8C1300 709.3 1300 763.7 1300 818.2C1300 872.7 1300 927.3 1300 981.8C1300 1036.3 1300 1090.7 1300 1145.2C1300 1199.7 1300 1254.3 1300 1309C1300 1363.7 1300 1418.3 1300 1472.8C1300 1527.3 1300 1581.7 1300 1636.2C1300 1690.7 1300 1745.3 1300 1772.7L1300 1800Z" fill="#83264b"></path><path d="M857 1800L841.8 1772.7C826.7 1745.3 796.3 1690.7 768.2 1636.2C740 1581.7 714 1527.3 740 1472.8C766 1418.3 844 1363.7 828.8 1309C813.7 1254.3 705.3 1199.7 649 1145.2C592.7 1090.7 588.3 1036.3 594.8 981.8C601.3 927.3 618.7 872.7 627.3 818.2C636 763.7 636 709.3 633.8 654.8C631.7 600.3 627.3 545.7 655.5 491C683.7 436.3 744.3 381.7 753 327.2C761.7 272.7 718.3 218.3 688 163.8C657.7 109.3 640.3 54.7 631.7 27.3L623 0L871 0L873.2 27.3C875.3 54.7 879.7 109.3 901.3 163.8C923 218.3 962 272.7 944.7 327.2C927.3 381.7 853.7 436.3 816.8 491C780 545.7 780 600.3 784.3 654.8C788.7 709.3 797.3 763.7 806 818.2C814.7 872.7 823.3 927.3 821.2 981.8C819 1036.3 806 1090.7 840.7 1145.2C875.3 1199.7 957.7 1254.3 981.5 1309C1005.3 1363.7 970.7 1418.3 959.8 1472.8C949 1527.3 962 1581.7 972.8 1636.2C983.7 1690.7 992.3 1745.3 996.7 1772.7L1001 1800Z" fill="#b44447"></path><path d="M688 1800L677.2 1772.7C666.3 1745.3 644.7 1690.7 597 1636.2C549.3 1581.7 475.7 1527.3 495.2 1472.8C514.7 1418.3 627.3 1363.7 636 1309C644.7 1254.3 549.3 1199.7 499.5 1145.2C449.7 1090.7 445.3 1036.3 438.8 981.8C432.3 927.3 423.7 872.7 425.8 818.2C428 763.7 441 709.3 443.2 654.8C445.3 600.3 436.7 545.7 469.2 491C501.7 436.3 575.3 381.7 571 327.2C566.7 272.7 484.3 218.3 432.3 163.8C380.3 109.3 358.7 54.7 347.8 27.3L337 0L624 0L632.7 27.3C641.3 54.7 658.7 109.3 689 163.8C719.3 218.3 762.7 272.7 754 327.2C745.3 381.7 684.7 436.3 656.5 491C628.3 545.7 632.7 600.3 634.8 654.8C637 709.3 637 763.7 628.3 818.2C619.7 872.7 602.3 927.3 595.8 981.8C589.3 1036.3 593.7 1090.7 650 1145.2C706.3 1199.7 814.7 1254.3 829.8 1309C845 1363.7 767 1418.3 741 1472.8C715 1527.3 741 1581.7 769.2 1636.2C797.3 1690.7 827.7 1745.3 842.8 1772.7L858 1800Z" fill="#d66f3a"></path><path d="M168 1800L170.2 1772.7C172.3 1745.3 176.7 1690.7 174.5 1636.2C172.3 1581.7 163.7 1527.3 159.3 1472.8C155 1418.3 155 1363.7 159.3 1309C163.7 1254.3 172.3 1199.7 165.8 1145.2C159.3 1090.7 137.7 1036.3 126.8 981.8C116 927.3 116 872.7 118.2 818.2C120.3 763.7 124.7 709.3 131.2 654.8C137.7 600.3 146.3 545.7 139.8 491C133.3 436.3 111.7 381.7 116 327.2C120.3 272.7 150.7 218.3 150.7 163.8C150.7 109.3 120.3 54.7 105.2 27.3L90 0L338 0L348.8 27.3C359.7 54.7 381.3 109.3 433.3 163.8C485.3 218.3 567.7 272.7 572 327.2C576.3 381.7 502.7 436.3 470.2 491C437.7 545.7 446.3 600.3 444.2 654.8C442 709.3 429 763.7 426.8 818.2C424.7 872.7 433.3 927.3 439.8 981.8C446.3 1036.3 450.7 1090.7 500.5 1145.2C550.3 1199.7 645.7 1254.3 637 1309C628.3 1363.7 515.7 1418.3 496.2 1472.8C476.7 1527.3 550.3 1581.7 598 1636.2C645.7 1690.7 667.3 1745.3 678.2 1772.7L689 1800Z" fill="#e4a32c"></path><path d="M0 1800L0 1772.7C0 1745.3 0 1690.7 0 1636.2C0 1581.7 0 1527.3 0 1472.8C0 1418.3 0 1363.7 0 1309C0 1254.3 0 1199.7 0 1145.2C0 1090.7 0 1036.3 0 981.8C0 927.3 0 872.7 0 818.2C0 763.7 0 709.3 0 654.8C0 600.3 0 545.7 0 491C0 436.3 0 381.7 0 327.2C0 272.7 0 218.3 0 163.8C0 109.3 0 54.7 0 27.3L0 0L91 0L106.2 27.3C121.3 54.7 151.7 109.3 151.7 163.8C151.7 218.3 121.3 272.7 117 327.2C112.7 381.7 134.3 436.3 140.8 491C147.3 545.7 138.7 600.3 132.2 654.8C125.7 709.3 121.3 763.7 119.2 818.2C117 872.7 117 927.3 127.8 981.8C138.7 1036.3 160.3 1090.7 166.8 1145.2C173.3 1199.7 164.7 1254.3 160.3 1309C156 1363.7 156 1418.3 160.3 1472.8C164.7 1527.3 173.3 1581.7 175.5 1636.2C177.7 1690.7 173.3 1745.3 171.2 1772.7L169 1800Z" fill="#dada38"></path></svg>