<svg id="visual" viewBox="0 0 1800 1800" width="1800" height="1800" xmlns="http://www.w3.org/2000/svg" xmlns:xlink="http://www.w3.org/1999/xlink" version="1.1"><rect x="0" y="0" width="1800" height="1800" fill="#49779a"></rect><defs><linearGradient id="grad1_0" x1="0%" y1="0%" x2="100%" y2="100%"><stop offset="30%" stop-color="#010203" stop-opacity="1"></stop><stop offset="70%" stop-color="#010203" stop-opacity="1"></stop></linearGradient></defs><defs><linearGradient id="grad1_1" x1="0%" y1="0%" x2="100%" y2="100%"><stop offset="30%" stop-color="#010203" stop-opacity="1"></stop><stop offset="70%" stop-color="#192129" stop-opacity="1"></stop></linearGradient></defs><defs><linearGradient id="grad1_2" x1="0%" y1="0%" x2="100%" y2="100%"><stop offset="30%" stop-color="#283c4c" stop-opacity="1"></stop><stop offset="70%" stop-color="#192129" stop-opacity="1"></stop></linearGradient></defs><defs><linearGradient id="grad1_3" x1="0%" y1="0%" x2="100%" y2="100%"><stop offset="30%" stop-color="#283c4c" stop-opacity="1"></stop><stop offset="70%" stop-color="#385972" stop-opacity="1"></stop></linearGradient></defs><defs><linearGradient id="grad1_4" x1="0%" y1="0%" x2="100%" y2="100%"><stop offset="30%" stop-color="#49779a" stop-opacity="1"></stop><stop offset="70%" stop-color="#385972" stop-opacity="1"></stop></linearGradient></defs><defs><linearGradient id="grad2_0" x1="0%" y1="0%" x2="100%" y2="100%"><stop offset="30%" stop-color="#010203" stop-opacity="1"></stop><stop offset="70%" stop-color="#010203" stop-opacity="1"></stop></linearGradient></defs><defs><linearGradient id="grad2_1" x1="0%" y1="0%" x2="100%" y2="100%"><stop offset="30%" stop-color="#192129" stop-opacity="1"></stop><stop offset="70%" stop-color="#010203" stop-opacity="1"></stop></linearGradient></defs><defs><linearGradient id="grad2_2" x1="0%" y1="0%" x2="100%" y2="100%"><stop offset="30%" stop-color="#192129" stop-opacity="1"></stop><stop offset="70%" stop-color="#283c4c" stop-opacity="1"></stop></linearGradient></defs><defs><linearGradient id="grad2_3" x1="0%" y1="0%" x2="100%" y2="100%"><stop offset="30%" stop-color="#385972" stop-opacity="1"></stop><stop offset="70%" stop-color="#283c4c" stop-opacity="1"></stop></linearGradient></defs><defs><linearGradient id="grad2_4" x1="0%" y1="0%" x2="100%" y2="100%"><stop offset="30%" stop-color="#385972" stop-opacity="1"></stop><stop offset="70%" stop-color="#49779a" stop-opacity="1"></stop></linearGradient></defs><g transform="translate(1800, 0)"><path d="M0 1209.2C-201.1 1161.6 -402.2 1114.1 -588.5 1019.3C-774.8 924.5 -946.2 782.3 -1047.2 604.6C-1148.1 426.8 -1178.6 213.4 -1209.2 0L0 0Z" fill="#416886"></path><path d="M0 967.3C-160.9 929.3 -321.8 891.3 -470.8 815.4C-619.8 739.6 -757 625.9 -837.7 483.7C-918.5 341.4 -942.9 170.7 -967.3 0L0 0Z" fill="#304a5e"></path><path d="M0 725.5C-120.7 697 -241.3 668.5 -353.1 611.6C-464.9 554.7 -567.7 469.4 -628.3 362.7C-688.9 256.1 -707.2 128 -725.5 0L0 0Z" fill="#202e3a"></path><path d="M0 483.7C-80.4 464.7 -160.9 445.7 -235.4 407.7C-309.9 369.8 -378.5 312.9 -418.9 241.8C-459.2 170.7 -471.5 85.4 -483.7 0L0 0Z" fill="#101519"></path><path d="M0 241.8C-40.2 232.3 -80.4 222.8 -117.7 203.9C-155 184.9 -189.2 156.5 -209.4 120.9C-229.6 85.4 -235.7 42.7 -241.8 0L0 0Z" fill="#010203"></path></g><g transform="translate(0, 1800)"><path d="M0 -1209.2C245.5 -1197.2 491 -1185.2 604.6 -1047.2C718.1 -909.1 699.8 -645 778.6 -449.5C857.3 -254 1033.2 -127 1209.2 0L0 0Z" fill="#416886"></path><path d="M0 -967.3C196.4 -957.7 392.8 -948.2 483.7 -837.7C574.5 -727.3 559.8 -516 622.8 -359.6C685.9 -203.2 826.6 -101.6 967.3 0L0 0Z" fill="#304a5e"></path><path d="M0 -725.5C147.3 -718.3 294.6 -711.1 362.7 -628.3C430.9 -545.5 419.9 -387 467.1 -269.7C514.4 -152.4 619.9 -76.2 725.5 0L0 0Z" fill="#202e3a"></path><path d="M0 -483.7C98.2 -478.9 196.4 -474.1 241.8 -418.9C287.3 -363.6 279.9 -258 311.4 -179.8C342.9 -101.6 413.3 -50.8 483.7 0L0 0Z" fill="#101519"></path><path d="M0 -241.8C49.1 -239.4 98.2 -237 120.9 -209.4C143.6 -181.8 140 -129 155.7 -89.9C171.5 -50.8 206.6 -25.4 241.8 0L0 0Z" fill="#010203"></path></g></svg>