<svg id="visual" viewBox="0 0 1800 1800" width="1800" height="1800" xmlns="http://www.w3.org/2000/svg" xmlns:xlink="http://www.w3.org/1999/xlink" version="1.1"><path d="M1763 1800L1754 1782.3C1745 1764.7 1727 1729.3 1715 1694C1703 1658.7 1697 1623.3 1700 1588C1703 1552.7 1715 1517.3 1727 1482C1739 1446.7 1751 1411.3 1748 1376.2C1745 1341 1727 1306 1724 1270.8C1721 1235.7 1733 1200.3 1733 1165C1733 1129.7 1721 1094.3 1721 1059C1721 1023.7 1733 988.3 1730 953C1727 917.7 1709 882.3 1706 847C1703 811.7 1715 776.3 1724 741C1733 705.7 1739 670.3 1745 635C1751 599.7 1757 564.3 1757 529.2C1757 494 1751 459 1748 423.8C1745 388.7 1745 353.3 1739 318C1733 282.7 1721 247.3 1724 212C1727 176.7 1745 141.3 1751 106C1757 70.7 1751 35.3 1748 17.7L1745 0L1800 0L1800 17.7C1800 35.3 1800 70.7 1800 106C1800 141.3 1800 176.7 1800 212C1800 247.3 1800 282.7 1800 318C1800 353.3 1800 388.7 1800 423.8C1800 459 1800 494 1800 529.2C1800 564.3 1800 599.7 1800 635C1800 670.3 1800 705.7 1800 741C1800 776.3 1800 811.7 1800 847C1800 882.3 1800 917.7 1800 953C1800 988.3 1800 1023.7 1800 1059C1800 1094.3 1800 1129.7 1800 1165C1800 1200.3 1800 1235.7 1800 1270.8C1800 1306 1800 1341 1800 1376.2C1800 1411.3 1800 1446.7 1800 1482C1800 1517.3 1800 1552.7 1800 1588C1800 1623.3 1800 1658.7 1800 1694C1800 1729.3 1800 1764.7 1800 1782.3L1800 1800Z" fill="#2e4f81"></path><path d="M1601 1800L1604 1782.3C1607 1764.7 1613 1729.3 1595 1694C1577 1658.7 1535 1623.3 1535 1588C1535 1552.7 1577 1517.3 1592 1482C1607 1446.7 1595 1411.3 1574 1376.2C1553 1341 1523 1306 1538 1270.8C1553 1235.7 1613 1200.3 1631 1165C1649 1129.7 1625 1094.3 1607 1059C1589 1023.7 1577 988.3 1562 953C1547 917.7 1529 882.3 1535 847C1541 811.7 1571 776.3 1580 741C1589 705.7 1577 670.3 1580 635C1583 599.7 1601 564.3 1610 529.2C1619 494 1619 459 1625 423.8C1631 388.7 1643 353.3 1637 318C1631 282.7 1607 247.3 1595 212C1583 176.7 1583 141.3 1592 106C1601 70.7 1619 35.3 1628 17.7L1637 0L1746 0L1749 17.7C1752 35.3 1758 70.7 1752 106C1746 141.3 1728 176.7 1725 212C1722 247.3 1734 282.7 1740 318C1746 353.3 1746 388.7 1749 423.8C1752 459 1758 494 1758 529.2C1758 564.3 1752 599.7 1746 635C1740 670.3 1734 705.7 1725 741C1716 776.3 1704 811.7 1707 847C1710 882.3 1728 917.7 1731 953C1734 988.3 1722 1023.7 1722 1059C1722 1094.3 1734 1129.7 1734 1165C1734 1200.3 1722 1235.7 1725 1270.8C1728 1306 1746 1341 1749 1376.2C1752 1411.3 1740 1446.7 1728 1482C1716 1517.3 1704 1552.7 1701 1588C1698 1623.3 1704 1658.7 1716 1694C1728 1729.3 1746 1764.7 1755 1782.3L1764 1800Z" fill="#375f9b"></path><path d="M1439 1800L1445 1782.3C1451 1764.7 1463 1729.3 1454 1694C1445 1658.7 1415 1623.3 1418 1588C1421 1552.7 1457 1517.3 1466 1482C1475 1446.7 1457 1411.3 1433 1376.2C1409 1341 1379 1306 1397 1270.8C1415 1235.7 1481 1200.3 1508 1165C1535 1129.7 1523 1094.3 1517 1059C1511 1023.7 1511 988.3 1493 953C1475 917.7 1439 882.3 1433 847C1427 811.7 1451 776.3 1460 741C1469 705.7 1463 670.3 1475 635C1487 599.7 1517 564.3 1517 529.2C1517 494 1487 459 1487 423.8C1487 388.7 1517 353.3 1520 318C1523 282.7 1499 247.3 1490 212C1481 176.7 1487 141.3 1502 106C1517 70.7 1541 35.3 1553 17.7L1565 0L1638 0L1629 17.7C1620 35.3 1602 70.7 1593 106C1584 141.3 1584 176.7 1596 212C1608 247.3 1632 282.7 1638 318C1644 353.3 1632 388.7 1626 423.8C1620 459 1620 494 1611 529.2C1602 564.3 1584 599.7 1581 635C1578 670.3 1590 705.7 1581 741C1572 776.3 1542 811.7 1536 847C1530 882.3 1548 917.7 1563 953C1578 988.3 1590 1023.7 1608 1059C1626 1094.3 1650 1129.7 1632 1165C1614 1200.3 1554 1235.7 1539 1270.8C1524 1306 1554 1341 1575 1376.2C1596 1411.3 1608 1446.7 1593 1482C1578 1517.3 1536 1552.7 1536 1588C1536 1623.3 1578 1658.7 1596 1694C1614 1729.3 1608 1764.7 1605 1782.3L1602 1800Z" fill="#4670b3"></path><path d="M1187 1800L1211 1782.3C1235 1764.7 1283 1729.3 1292 1694C1301 1658.7 1271 1623.3 1244 1588C1217 1552.7 1193 1517.3 1178 1482C1163 1446.7 1157 1411.3 1160 1376.2C1163 1341 1175 1306 1202 1270.8C1229 1235.7 1271 1200.3 1271 1165C1271 1129.7 1229 1094.3 1241 1059C1253 1023.7 1319 988.3 1298 953C1277 917.7 1169 882.3 1160 847C1151 811.7 1241 776.3 1283 741C1325 705.7 1319 670.3 1310 635C1301 599.7 1289 564.3 1271 529.2C1253 494 1229 459 1223 423.8C1217 388.7 1229 353.3 1250 318C1271 282.7 1301 247.3 1289 212C1277 176.7 1223 141.3 1217 106C1211 70.7 1253 35.3 1274 17.7L1295 0L1566 0L1554 17.7C1542 35.3 1518 70.7 1503 106C1488 141.3 1482 176.7 1491 212C1500 247.3 1524 282.7 1521 318C1518 353.3 1488 388.7 1488 423.8C1488 459 1518 494 1518 529.2C1518 564.3 1488 599.7 1476 635C1464 670.3 1470 705.7 1461 741C1452 776.3 1428 811.7 1434 847C1440 882.3 1476 917.7 1494 953C1512 988.3 1512 1023.7 1518 1059C1524 1094.3 1536 1129.7 1509 1165C1482 1200.3 1416 1235.7 1398 1270.8C1380 1306 1410 1341 1434 1376.2C1458 1411.3 1476 1446.7 1467 1482C1458 1517.3 1422 1552.7 1419 1588C1416 1623.3 1446 1658.7 1455 1694C1464 1729.3 1452 1764.7 1446 1782.3L1440 1800Z" fill="#6486bf"></path><path d="M917 1800L935 1782.3C953 1764.7 989 1729.3 992 1694C995 1658.7 965 1623.3 914 1588C863 1552.7 791 1517.3 785 1482C779 1446.7 839 1411.3 842 1376.2C845 1341 791 1306 749 1270.8C707 1235.7 677 1200.3 677 1165C677 1129.7 707 1094.3 782 1059C857 1023.7 977 988.3 947 953C917 917.7 737 882.3 671 847C605 811.7 653 776.3 728 741C803 705.7 905 670.3 950 635C995 599.7 983 564.3 941 529.2C899 494 827 459 824 423.8C821 388.7 887 353.3 887 318C887 282.7 821 247.3 812 212C803 176.7 851 141.3 908 106C965 70.7 1031 35.3 1064 17.7L1097 0L1296 0L1275 17.7C1254 35.3 1212 70.7 1218 106C1224 141.3 1278 176.7 1290 212C1302 247.3 1272 282.7 1251 318C1230 353.3 1218 388.7 1224 423.8C1230 459 1254 494 1272 529.2C1290 564.3 1302 599.7 1311 635C1320 670.3 1326 705.7 1284 741C1242 776.3 1152 811.7 1161 847C1170 882.3 1278 917.7 1299 953C1320 988.3 1254 1023.7 1242 1059C1230 1094.3 1272 1129.7 1272 1165C1272 1200.3 1230 1235.7 1203 1270.8C1176 1306 1164 1341 1161 1376.2C1158 1411.3 1164 1446.7 1179 1482C1194 1517.3 1218 1552.7 1245 1588C1272 1623.3 1302 1658.7 1293 1694C1284 1729.3 1236 1764.7 1212 1782.3L1188 1800Z" fill="#7694c7"></path><path d="M791 1800L818 1782.3C845 1764.7 899 1729.3 902 1694C905 1658.7 857 1623.3 797 1588C737 1552.7 665 1517.3 656 1482C647 1446.7 701 1411.3 713 1376.2C725 1341 695 1306 662 1270.8C629 1235.7 593 1200.3 587 1165C581 1129.7 605 1094.3 677 1059C749 1023.7 869 988.3 836 953C803 917.7 617 882.3 557 847C497 811.7 563 776.3 650 741C737 705.7 845 670.3 881 635C917 599.7 881 564.3 830 529.2C779 494 713 459 713 423.8C713 388.7 779 353.3 773 318C767 282.7 689 247.3 686 212C683 176.7 755 141.3 815 106C875 70.7 923 35.3 947 17.7L971 0L1098 0L1065 17.7C1032 35.3 966 70.7 909 106C852 141.3 804 176.7 813 212C822 247.3 888 282.7 888 318C888 353.3 822 388.7 825 423.8C828 459 900 494 942 529.2C984 564.3 996 599.7 951 635C906 670.3 804 705.7 729 741C654 776.3 606 811.7 672 847C738 882.3 918 917.7 948 953C978 988.3 858 1023.7 783 1059C708 1094.3 678 1129.7 678 1165C678 1200.3 708 1235.7 750 1270.8C792 1306 846 1341 843 1376.2C840 1411.3 780 1446.7 786 1482C792 1517.3 864 1552.7 915 1588C966 1623.3 996 1658.7 993 1694C990 1729.3 954 1764.7 936 1782.3L918 1800Z" fill="#7694c7"></path><path d="M683 1800L722 1782.3C761 1764.7 839 1729.3 842 1694C845 1658.7 773 1623.3 701 1588C629 1552.7 557 1517.3 557 1482C557 1446.7 629 1411.3 638 1376.2C647 1341 593 1306 560 1270.8C527 1235.7 515 1200.3 515 1165C515 1129.7 527 1094.3 587 1059C647 1023.7 755 988.3 728 953C701 917.7 539 882.3 482 847C425 811.7 473 776.3 557 741C641 705.7 761 670.3 806 635C851 599.7 821 564.3 767 529.2C713 494 635 459 632 423.8C629 388.7 701 353.3 698 318C695 282.7 617 247.3 602 212C587 176.7 635 141.3 683 106C731 70.7 779 35.3 803 17.7L827 0L972 0L948 17.7C924 35.3 876 70.7 816 106C756 141.3 684 176.7 687 212C690 247.3 768 282.7 774 318C780 353.3 714 388.7 714 423.8C714 459 780 494 831 529.2C882 564.3 918 599.7 882 635C846 670.3 738 705.7 651 741C564 776.3 498 811.7 558 847C618 882.3 804 917.7 837 953C870 988.3 750 1023.7 678 1059C606 1094.3 582 1129.7 588 1165C594 1200.3 630 1235.7 663 1270.8C696 1306 726 1341 714 1376.2C702 1411.3 648 1446.7 657 1482C666 1517.3 738 1552.7 798 1588C858 1623.3 906 1658.7 903 1694C900 1729.3 846 1764.7 819 1782.3L792 1800Z" fill="#6486bf"></path><path d="M305 1800L320 1782.3C335 1764.7 365 1729.3 359 1694C353 1658.7 311 1623.3 287 1588C263 1552.7 257 1517.3 260 1482C263 1446.7 275 1411.3 287 1376.2C299 1341 311 1306 302 1270.8C293 1235.7 263 1200.3 269 1165C275 1129.7 317 1094.3 317 1059C317 1023.7 275 988.3 242 953C209 917.7 185 882.3 185 847C185 811.7 209 776.3 248 741C287 705.7 341 670.3 362 635C383 599.7 371 564.3 338 529.2C305 494 251 459 233 423.8C215 388.7 233 353.3 248 318C263 282.7 275 247.3 293 212C311 176.7 335 141.3 335 106C335 70.7 311 35.3 299 17.7L287 0L828 0L804 17.7C780 35.3 732 70.7 684 106C636 141.3 588 176.7 603 212C618 247.3 696 282.7 699 318C702 353.3 630 388.7 633 423.8C636 459 714 494 768 529.2C822 564.3 852 599.7 807 635C762 670.3 642 705.7 558 741C474 776.3 426 811.7 483 847C540 882.3 702 917.7 729 953C756 988.3 648 1023.7 588 1059C528 1094.3 516 1129.7 516 1165C516 1200.3 528 1235.7 561 1270.8C594 1306 648 1341 639 1376.2C630 1411.3 558 1446.7 558 1482C558 1517.3 630 1552.7 702 1588C774 1623.3 846 1658.7 843 1694C840 1729.3 762 1764.7 723 1782.3L684 1800Z" fill="#4670b3"></path><path d="M53 1800L65 1782.3C77 1764.7 101 1729.3 104 1694C107 1658.7 89 1623.3 77 1588C65 1552.7 59 1517.3 71 1482C83 1446.7 113 1411.3 116 1376.2C119 1341 95 1306 89 1270.8C83 1235.7 95 1200.3 107 1165C119 1129.7 131 1094.3 134 1059C137 1023.7 131 988.3 116 953C101 917.7 77 882.3 77 847C77 811.7 101 776.3 110 741C119 705.7 113 670.3 101 635C89 599.7 71 564.3 65 529.2C59 494 65 459 80 423.8C95 388.7 119 353.3 131 318C143 282.7 143 247.3 137 212C131 176.7 119 141.3 122 106C125 70.7 143 35.3 152 17.7L161 0L288 0L300 17.7C312 35.3 336 70.7 336 106C336 141.3 312 176.7 294 212C276 247.3 264 282.7 249 318C234 353.3 216 388.7 234 423.8C252 459 306 494 339 529.2C372 564.3 384 599.7 363 635C342 670.3 288 705.7 249 741C210 776.3 186 811.7 186 847C186 882.3 210 917.7 243 953C276 988.3 318 1023.7 318 1059C318 1094.3 276 1129.7 270 1165C264 1200.3 294 1235.7 303 1270.8C312 1306 300 1341 288 1376.2C276 1411.3 264 1446.7 261 1482C258 1517.3 264 1552.7 288 1588C312 1623.3 354 1658.7 360 1694C366 1729.3 336 1764.7 321 1782.3L306 1800Z" fill="#375f9b"></path><path d="M0 1800L0 1782.3C0 1764.7 0 1729.3 0 1694C0 1658.7 0 1623.3 0 1588C0 1552.7 0 1517.3 0 1482C0 1446.7 0 1411.3 0 1376.2C0 1341 0 1306 0 1270.8C0 1235.7 0 1200.3 0 1165C0 1129.7 0 1094.3 0 1059C0 1023.7 0 988.3 0 953C0 917.7 0 882.3 0 847C0 811.7 0 776.3 0 741C0 705.7 0 670.3 0 635C0 599.7 0 564.3 0 529.2C0 494 0 459 0 423.8C0 388.7 0 353.3 0 318C0 282.7 0 247.3 0 212C0 176.7 0 141.3 0 106C0 70.7 0 35.3 0 17.7L0 0L162 0L153 17.7C144 35.3 126 70.7 123 106C120 141.3 132 176.7 138 212C144 247.3 144 282.7 132 318C120 353.3 96 388.7 81 423.8C66 459 60 494 66 529.2C72 564.3 90 599.7 102 635C114 670.3 120 705.7 111 741C102 776.3 78 811.7 78 847C78 882.3 102 917.7 117 953C132 988.3 138 1023.7 135 1059C132 1094.3 120 1129.7 108 1165C96 1200.3 84 1235.7 90 1270.8C96 1306 120 1341 117 1376.2C114 1411.3 84 1446.7 72 1482C60 1517.3 66 1552.7 78 1588C90 1623.3 108 1658.7 105 1694C102 1729.3 78 1764.7 66 1782.3L54 1800Z" fill="#2e4f81"></path></svg>