<svg id="visual" viewBox="0 0 1800 1800" width="1800" height="1800" xmlns="http://www.w3.org/2000/svg" xmlns:xlink="http://www.w3.org/1999/xlink" version="1.1"><rect x="0" y="0" width="1800" height="1800" fill="#44a6ad"></rect><g transform="translate(879.9914067421352 845.8724834161588)"><path d="M250.6 -291.7C339.2 -224.3 435.5 -159 475.7 -64.2C515.9 30.7 500 155.1 449.8 276.4C399.7 397.8 315.3 516 212.4 530.4C109.6 544.7 -11.7 455.1 -115 386.8C-218.3 318.5 -303.6 271.5 -368.6 195.2C-433.5 118.9 -478.2 13.4 -449.6 -67.1C-420.9 -147.7 -318.9 -203.1 -231.8 -270.7C-144.6 -338.4 -72.3 -418.2 4.3 -423.4C81 -428.5 162 -359 250.6 -291.7" fill="#FFFFFF"></path></g></svg>